<svg xmlns="http://www.w3.org/2000/svg" width="1200" height="630" fill="none">
  <rect width="1200" height="630" fill="#F7F1E8" />
  <!-- Map grid background -->
  <defs>
    <pattern id="grid" width="60" height="60" patternUnits="userSpaceOnUse">
      <rect width="60" height="60" fill="none" stroke="#D8D6D0" stroke-width="0.5" opacity="0.3" />
      <circle cx="30" cy="30" r="0.5" fill="#D8D6D0" opacity="0.2" />
    </pattern>
  </defs>
  <rect width="1200" height="630" fill="url(#grid)" />
  <!-- Logo mark centered -->
  <g transform="translate(600, 240)">
    <circle cx="0" cy="0" r="70" stroke="#101828" stroke-width="3" stroke-dasharray="438 445" stroke-dashoffset="110" />
    <ellipse cx="0" cy="0" rx="30" ry="70" stroke="#101828" stroke-width="2" opacity="0.6" />
    <ellipse cx="0" cy="0" rx="55" ry="70" stroke="#101828" stroke-width="1.5" opacity="0.35" />
    <path d="M-70 0 Q0 -45 70 0" stroke="#101828" stroke-width="2" opacity="0.5" />
    <path d="M-64 20 Q0 52 64 20" stroke="#101828" stroke-width="1.5" opacity="0.35" />
    <path d="M-64 -20 Q0 -52 64 -20" stroke="#101828" stroke-width="1.5" opacity="0.35" />
    <line x1="0" y1="-73" x2="0" y2="73" stroke="#101828" stroke-width="1.5" opacity="0.3" />
    <circle cx="25" cy="-15" r="7" fill="#D99A2B" />
    <circle cx="25" cy="-15" r="15" fill="#D99A2B" opacity="0.12" />
  </g>
  <!-- Project name -->
  <text x="600" y="370" text-anchor="middle" font-family="IBM Plex Serif, Georgia, serif" font-size="52" font-weight="700" fill="#101828">Accountability Atlas</text>
  <!-- Tagline -->
  <text x="600" y="420" text-anchor="middle" font-family="IBM Plex Serif, Georgia, serif" font-size="28" font-weight="500" fill="#1F2937">Evidence for protection. Action for accountability.</text>
  <!-- Sub-label -->
  <text x="600" y="470" text-anchor="middle" font-family="IBM Plex Mono, monospace" font-size="16" font-weight="500" fill="#3B6EA8" letter-spacing="3">OPEN CIVIC ACCOUNTABILITY PLATFORM</text>
</svg>
